<?xml version="1.0" encoding="UTF-8"?>
<svg width="91px" height="735px" viewBox="0 0 91 735" version="1.1" xmlns="http://www.w3.org/2000/svg" xmlns:xlink="http://www.w3.org/1999/xlink">
    <!-- Generator: Sketch 40.1 (33804) - http://www.bohemiancoding.com/sketch -->
    <title>Untitled</title>
    <desc>Created with Sketch.</desc>
    <defs></defs>
    <g id="Page-1" stroke="none" stroke-width="1" fill="none" fill-rule="evenodd">
        <g id="original-outlined" transform="translate(46.000000, 367.000000) rotate(-90.000000) translate(-46.000000, -367.000000) translate(-321.000000, 322.000000)">
            <path d="M10,76.1601562 C13.4375172,82.0976859 18.730433,85.0664062 25.8789062,85.0664062 C30.3320535,85.0664062 33.8476434,84.0312604 36.4257812,81.9609375 C39.0039191,79.8906146 40.2929688,77.0195496 40.2929688,73.3476562 C40.2929688,70.1835779 39.5800853,67.3418095 38.1542969,64.8222656 C36.7285085,62.3027218 34.8046996,59.9980573 32.3828125,57.9082031 C29.9609254,55.8183489 26.7578324,53.4453258 22.7734375,50.7890625 C17.9296633,47.5468588 14.091811,44.7343869 11.2597656,42.3515625 C8.42772021,39.9687381 6.08399365,37.1855628 4.22851562,34.0019531 C2.3730376,30.8183435 1.4453125,27.1562707 1.4453125,23.015625 C1.4453125,18.0156 2.8027208,13.8066577 5.51757812,10.3886719 C8.23243545,6.97068604 11.835915,4.44141445 16.328125,2.80078125 C20.820335,1.16014805 25.7616918,0.33984375 31.1523438,0.33984375 C35.7617418,0.33984375 39.4921732,0.769526953 42.34375,1.62890625 C45.1953268,2.48828555 47.9492055,3.66014883 50.6054688,5.14453125 C51.7382869,5.76953438 52.5781223,6.20898311 53.125,6.46289063 C53.6718777,6.71679814 54.1992162,6.84375 54.7070312,6.84375 C55.4492225,6.84375 56.015623,6.42383232 56.40625,5.58398438 C56.796877,4.74413643 57.1093738,3.40625918 57.34375,1.5703125 L60.0976562,1.5703125 C59.7070293,7.31252871 59.5117188,17.0780561 59.5117188,30.8671875 L56.7578125,30.8671875 C56.4453109,26.2968521 55.4003995,21.9218959 53.6230469,17.7421875 C51.8456942,13.5624791 49.433609,10.1640756 46.3867188,7.546875 C43.3398285,4.92967441 39.8242387,3.62109375 35.8398438,3.62109375 C32.2070131,3.62109375 29.2578238,4.59764648 26.9921875,6.55078125 C24.7265512,8.50391602 23.59375,11.2382637 23.59375,14.7539062 C23.59375,17.6445457 24.2675714,20.1249896 25.6152344,22.1953125 C26.9628974,24.2656354 28.8183476,26.2187408 31.1816406,28.0546875 C33.5449337,29.8906342 38.0663729,33.1327893 44.7460938,37.78125 C49.1601783,40.8672029 52.6757682,43.572254 55.2929688,45.8964844 C57.9101693,48.2207147 60.0488198,50.9452969 61.7089844,54.0703125 C63.3691489,57.1953281 64.1992188,60.8085732 64.1992188,64.9101562 C64.1992188,70.1054947 62.7343896,74.4902165 59.8046875,78.0644531 C56.8749854,81.6386897 52.9492434,84.3046787 48.0273438,86.0625 C43.1054441,87.8203213 37.6172178,88.6992188 31.5625,88.6992188 C26.6406004,88.6992188 22.5683755,88.2988321 19.3457031,87.4980469 C16.1230308,86.6972616 13.1054828,85.6132881 10.2929688,84.2460938 C8.49608477,83.1132756 7.14844199,82.546875 6.25,82.546875 C5.50780879,82.546875 4.9414082,82.9570271 4.55078125,83.7773438 C4.1601543,84.5976604 3.82812637,85.9453031 3.5546875,87.8203125 L0.80078125,87.8203125 C1.15234551,81.726532 1.328125,70.1250855 1.328125,53.015625 L4.08203125,53.015625 C4.58984629,62.50786 6.56248281,70.2226266 10,76.1601562 L10,76.1601562 L10,76.1601562 L10,76.1601562 Z M137.929688,7.01953125 C136.757807,8.19141211 135.966799,9.97850361 135.556641,12.3808594 C135.146482,14.7832151 134.941406,18.3671637 134.941406,23.1328125 L134.941406,87 C133.769525,86.8828119 132.460945,86.8242188 131.015625,86.8242188 C129.609368,86.8242188 128.105477,86.8828119 126.503906,87 L73.359375,28.9335938 L73.359375,63.5039062 C73.359375,69.4023732 73.5937477,73.6406121 74.0625,76.21875 C74.5312523,78.7968879 75.5859293,80.7011657 77.2265625,81.9316406 C78.8671957,83.1621155 81.6210744,84.0507785 85.4882812,84.5976562 L85.4882812,87 C82.2851402,86.7656238 77.7929977,86.6484375 72.0117188,86.6484375 C67.7929477,86.6484375 64.4726684,86.7656238 62.0507812,87 L62.0507812,84.5976562 C64.5507937,84.0507785 66.3964784,83.1914121 67.5878906,82.0195312 C68.7793028,80.8476504 69.5800761,79.0605589 69.9902344,76.6582031 C70.4003927,74.2558474 70.6054688,70.6718988 70.6054688,65.90625 L70.6054688,14.7539062 C70.6054688,11.7460787 70.3906271,9.55860059 69.9609375,8.19140625 C69.5312479,6.82421191 68.7402401,5.88672129 67.5878906,5.37890625 C66.4355411,4.87109121 64.5898564,4.55859434 62.0507812,4.44140625 L62.0507812,2.0390625 C64.4726684,2.27343867 67.7929477,2.390625 72.0117188,2.390625 C76.4258033,2.390625 80.1171727,2.27343867 83.0859375,2.0390625 L132.128906,53.8945312 L132.128906,25.5351562 C132.128906,19.6366893 131.894534,15.3984504 131.425781,12.8203125 C130.957029,10.2421746 129.912117,8.33789678 128.291016,7.10742188 C126.669914,5.87694697 123.925801,4.98828398 120.058594,4.44140625 L120.058594,2.0390625 C123.300797,2.27343867 127.773409,2.390625 133.476562,2.390625 C137.734396,2.390625 141.054676,2.27343867 143.4375,2.0390625 L143.4375,4.44140625 C140.937488,4.98828398 139.101568,5.84765039 137.929688,7.01953125 L137.929688,7.01953125 L137.929688,7.01953125 L137.929688,7.01953125 Z M208.964844,5.49609375 C215.761753,8.93361094 221.035137,13.9237954 224.785156,20.4667969 C228.535175,27.0097983 230.410156,34.7929236 230.410156,43.8164062 C230.410156,52.6445754 228.486347,60.4569973 224.638672,67.2539062 C220.790996,74.0508152 215.429722,79.3242 208.554688,83.0742188 C201.679653,86.8242375 193.8477,88.6992188 185.058594,88.6992188 C175.996048,88.6992188 168.06644,86.9804859 161.269531,83.5429688 C154.472622,80.1054516 149.199238,75.1152671 145.449219,68.5722656 C141.6992,62.0292642 139.824219,54.2461389 139.824219,45.2226562 C139.824219,36.3944871 141.748028,28.5820652 145.595703,21.7851562 C149.443379,14.9882473 154.794888,9.7148625 161.650391,5.96484375 C168.505894,2.214825 176.347612,0.33984375 185.175781,0.33984375 C194.238327,0.33984375 202.167935,2.05857656 208.964844,5.49609375 L208.964844,5.49609375 L208.964844,5.49609375 L208.964844,5.49609375 Z M174.335938,7.86914062 C171.367173,11.4433772 169.072274,16.4237962 167.451172,22.8105469 C165.83007,29.1972976 165.019531,36.5116775 165.019531,44.7539062 C165.019531,53.0351977 165.937491,60.3495776 167.773438,66.6972656 C169.609384,73.0449536 172.089828,77.9374828 175.214844,81.375 C178.339859,84.8125172 181.777325,86.53125 185.527344,86.53125 C189.472676,86.53125 192.929673,84.7441585 195.898438,81.1699219 C198.867202,77.5956853 201.162101,72.6152663 202.783203,66.2285156 C204.404305,59.8417649 205.214844,52.527385 205.214844,44.2851562 C205.214844,36.0038648 204.296884,28.6894849 202.460938,22.3417969 C200.624991,15.9941089 198.144547,11.1015797 195.019531,7.6640625 C191.894516,4.22654531 188.45705,2.5078125 184.707031,2.5078125 C180.761699,2.5078125 177.304702,4.294904 174.335938,7.86914062 L174.335938,7.86914062 L174.335938,7.86914062 L174.335938,7.86914062 Z M337.714844,2.390625 C341.503925,2.390625 344.589832,2.27343867 346.972656,2.0390625 L346.972656,4.44140625 C342.24607,6.74610527 338.515639,12.351518 335.78125,21.2578125 L315.625,87 C313.124987,86.8437492 311.015634,86.765625 309.296875,86.765625 C307.695304,86.765625 305.605482,86.8437492 303.027344,87 L287.441406,39.3632812 L270.507812,87 C268.0078,86.8437492 265.898446,86.765625 264.179688,86.765625 C262.578117,86.765625 260.488294,86.8437492 257.910156,87 L230.078125,12.1171875 C229.14062,9.5781123 228.02735,7.6836 226.738281,6.43359375 C225.449212,5.1835875 224.199225,4.51953164 222.988281,4.44140625 L222.988281,2.0390625 C228.808623,2.27343867 235.898396,2.390625 244.257812,2.390625 C251.562537,2.390625 256.874983,2.27343867 260.195312,2.0390625 L260.195312,4.44140625 C258.085927,4.8710959 257.03125,6.47264238 257.03125,9.24609375 C257.03125,11.0429777 257.363278,12.8007727 258.027344,14.5195312 L275.488281,63.4453125 L285.976562,34.96875 L277.832031,10.0664062 C277.207028,8.11327148 276.406255,6.71680107 275.429688,5.87695312 C274.45312,5.03710518 273.222664,4.55859434 271.738281,4.44140625 L271.738281,2.0390625 C277.128933,2.27343867 284.042927,2.390625 292.480469,2.390625 C300.800823,2.390625 307.011698,2.27343867 311.113281,2.0390625 L311.113281,4.44140625 C308.183579,4.51953164 306.083991,4.87109062 304.814453,5.49609375 C303.544916,6.12109688 302.910156,7.29296016 302.910156,9.01171875 C302.910156,10.3398504 303.320308,12.1757695 304.140625,14.5195312 L319.960938,62.625 L329.21875,32.9765625 C331.328136,26.0624654 332.382812,20.4765838 332.382812,16.21875 C332.382812,12.1952924 331.49415,9.25586865 329.716797,7.40039063 C327.939444,5.5449126 325.371111,4.55859434 322.011719,4.44140625 L322.011719,2.0390625 C327.988311,2.27343867 333.222634,2.390625 337.714844,2.390625 L337.714844,2.390625 L337.714844,2.390625 L337.714844,2.390625 Z" id="SNOW" fill="#616161"></path>
            <path d="M388.34082,64.9814453 C391.229507,66.165696 393.33235,67.6266189 394.649414,69.3642578 C395.966478,71.1018967 396.625,72.9557193 396.625,74.9257812 C396.625,79.3528867 394.848651,82.6565646 391.295898,84.8369141 C387.743146,87.0172635 382.712923,88.1074219 376.205078,88.1074219 C375.25325,88.1074219 373.570976,88.0742191 371.158203,88.0078125 C368.745431,87.9414059 366.310559,87.9082031 363.853516,87.9082031 C358.540989,87.9082031 354.589857,87.9746087 352,88.1074219 L352,86.7460938 C353.460945,86.6796872 354.5179,86.5026056 355.170898,86.2148438 C355.823896,85.9270819 356.2666,85.3958372 356.499023,84.6210938 C356.731446,83.8463503 356.847656,82.6067794 356.847656,80.9023438 L356.847656,47.1679688 C356.847656,45.4635331 356.725913,44.2239622 356.482422,43.4492188 C356.238931,42.6744753 355.790693,42.1432306 355.137695,41.8554688 C354.484697,41.5677069 353.438809,41.3906253 352,41.3242188 L352,39.9628906 C354.589857,40.0957038 358.496719,40.1621094 363.720703,40.1621094 C365.580087,40.1621094 367.649728,40.1399742 369.929688,40.0957031 C372.209647,40.0514321 373.781246,40.0292969 374.644531,40.0292969 C378.673197,40.0292969 382.065416,40.4775346 384.821289,41.3740234 C387.577162,42.2705123 389.641269,43.5211508 391.013672,45.1259766 C392.386075,46.7308023 393.072266,48.5956925 393.072266,50.7207031 C393.072266,52.4030032 392.491217,54.085278 391.329102,55.7675781 C390.166986,57.4498782 388.401705,58.9274025 386.033203,60.2001953 C383.664702,61.4729881 380.776059,62.3196594 377.367188,62.7402344 L377.367188,62.8730469 C381.794293,63.0944021 385.452134,63.7971946 388.34082,64.9814453 L388.34082,64.9814453 L388.34082,64.9814453 L388.34082,64.9814453 Z M377.616211,59.5361328 C378.579106,57.5328676 379.060547,54.8379076 379.060547,51.4511719 C379.060547,48.0201651 378.695316,45.4746177 377.964844,43.8144531 C377.234371,42.1542886 376.016936,41.3242188 374.3125,41.3242188 C373.27213,41.3242188 372.491865,41.4846989 371.97168,41.8056641 C371.451495,42.1266292 371.097332,42.6966105 370.90918,43.515625 C370.721028,44.3346395 370.626953,45.5520753 370.626953,47.1679688 L370.626953,62.5410156 L372.486328,62.5410156 C374.943372,62.5410156 376.653315,61.539398 377.616211,59.5361328 L377.616211,59.5361328 L377.616211,59.5361328 L377.616211,59.5361328 Z M370.975586,84.5214844 C371.208009,85.2962278 371.628578,85.8274725 372.237305,86.1152344 C372.846032,86.4029962 373.792311,86.546875 375.076172,86.546875 C379.923852,86.546875 382.347656,82.5736074 382.347656,74.6269531 C382.347656,71.0631332 381.489917,68.3515718 379.774414,66.4921875 C378.058911,64.6328032 375.330748,63.703125 371.589844,63.703125 L370.626953,63.703125 L370.626953,80.9023438 C370.626953,82.5403728 370.743163,83.7467409 370.975586,84.5214844 L370.975586,84.5214844 L370.975586,84.5214844 L370.975586,84.5214844 Z M449.587891,50.4052734 C451.712901,54.1129743 452.775391,58.5234119 452.775391,63.6367188 C452.775391,68.6393479 451.685232,73.066387 449.504883,76.9179688 C447.324533,80.7695505 444.286478,83.7578019 440.390625,85.8828125 C436.494772,88.0078231 432.056666,89.0703125 427.076172,89.0703125 C421.94073,89.0703125 417.447285,88.0963639 413.595703,86.1484375 C409.744121,84.2005111 406.75587,81.3727399 404.630859,77.6650391 C402.505849,73.9573382 401.443359,69.5469006 401.443359,64.4335938 C401.443359,59.4309646 402.533518,55.0039255 404.713867,51.1523438 C406.894217,47.300762 409.926738,44.3125106 413.811523,42.1875 C417.696308,40.0624894 422.139949,39 427.142578,39 C432.27802,39 436.771465,39.9739486 440.623047,41.921875 C444.474629,43.8698014 447.46288,46.6975726 449.587891,50.4052734 Z M421,43.2666016 C419.3177,45.2920023 418.017257,48.1142397 417.098633,51.7333984 C416.180008,55.3525572 415.720703,59.4973725 415.720703,64.1679688 C415.720703,68.8607005 416.24088,73.0055159 417.28125,76.6025391 C418.32162,80.1995623 419.727205,82.9719955 421.498047,84.9199219 C423.268889,86.8678483 425.216786,87.8417969 427.341797,87.8417969 C429.577485,87.8417969 431.53645,86.8291117 433.21875,84.8037109 C434.90105,82.7783102 436.201493,79.9560728 437.120117,76.3369141 C438.038742,72.7177553 438.498047,68.57294 438.498047,63.9023438 C438.498047,59.209612 437.97787,55.0647966 436.9375,51.4677734 C435.89713,47.8707502 434.491545,45.098317 432.720703,43.1503906 C430.949861,41.2024642 429.001964,40.2285156 426.876953,40.2285156 C424.641265,40.2285156 422.6823,41.2412008 421,43.2666016 L421,43.2666016 L421,43.2666016 L421,43.2666016 Z M497.628906,85.6337891 C498.337243,86.3310582 499.034502,86.7018227 499.720703,86.7460938 L499.720703,88.1074219 C496.444645,87.9746087 492.316431,87.9082031 487.335938,87.9082031 C482.156224,87.9082031 478.348971,87.9746087 475.914062,88.1074219 L475.914062,86.7460938 C477.618498,86.6796872 478.841468,86.4694028 479.583008,86.1152344 C480.324548,85.7610659 480.695312,85.1412805 480.695312,84.2558594 C480.695312,83.569658 480.418623,82.4961011 479.865234,81.0351562 L475.814453,69.8789062 L462.101562,69.8789062 L460.939453,72.9335938 C459.478508,76.7409045 458.748047,79.695953 458.748047,81.7988281 C458.748047,83.6582124 459.26269,84.9309862 460.291992,85.6171875 C461.321294,86.3033888 462.854156,86.6796872 464.890625,86.7460938 L464.890625,88.1074219 C461.503889,87.9746087 458.537773,87.9082031 455.992188,87.9082031 C453.845041,87.9082031 452.096361,87.9746087 450.746094,88.1074219 L450.746094,86.7460938 C451.85287,86.5690095 452.909826,85.8717509 453.916992,84.6542969 C454.924159,83.4368429 455.947911,81.4778781 456.988281,78.7773438 L472.095703,39.9628906 C473.069666,40.0514327 474.264967,40.0957031 475.681641,40.0957031 C477.098314,40.0957031 478.282547,40.0514327 479.234375,39.9628906 L495.703125,82.3964844 C496.278649,83.8574292 496.920569,84.93652 497.628906,85.6337891 L497.628906,85.6337891 L497.628906,85.6337891 L497.628906,85.6337891 Z M469.173828,51.5175781 L462.632812,68.5175781 L475.349609,68.5175781 L469.173828,51.5175781 L469.173828,51.5175781 L469.173828,51.5175781 Z M547.080078,88.2402344 C545.442049,88.7936226 543.538422,89.0703125 541.369141,89.0703125 C538.248031,89.0703125 535.818694,88.5113988 534.081055,87.3935547 C532.343416,86.2757106 531.275393,84.3776176 530.876953,81.6992188 L529.847656,74.9257812 C529.38281,71.7382653 528.763025,69.3310628 527.988281,67.7041016 C527.213538,66.0771403 526.029305,65.2636719 524.435547,65.2636719 L521.347656,65.2636719 L521.347656,80.9023438 C521.347656,82.6067794 521.4694,83.8463503 521.712891,84.6210938 C521.956381,85.3958372 522.404619,85.9270819 523.057617,86.2148438 C523.710615,86.5026056 524.756503,86.6796872 526.195312,86.7460938 L526.195312,88.1074219 C523.539049,87.9746087 519.753931,87.9082031 514.839844,87.9082031 C509.350233,87.9082031 505.31056,87.9746087 502.720703,88.1074219 L502.720703,86.7460938 C504.181648,86.6796872 505.238604,86.5026056 505.891602,86.2148438 C506.5446,85.9270819 506.987304,85.3958372 507.219727,84.6210938 C507.45215,83.8463503 507.568359,82.6067794 507.568359,80.9023438 L507.568359,47.1679688 C507.568359,45.4635331 507.446616,44.2239622 507.203125,43.4492188 C506.959634,42.6744753 506.511396,42.1432306 505.858398,41.8554688 C505.2054,41.5677069 504.159512,41.3906253 502.720703,41.3242188 L502.720703,39.9628906 C505.31056,40.0957038 509.217422,40.1621094 514.441406,40.1621094 C516.300791,40.1621094 518.370431,40.1399742 520.650391,40.0957031 C522.93035,40.0514321 524.501949,40.0292969 525.365234,40.0292969 C532.271519,40.0292969 537.412418,40.9977117 540.788086,42.9345703 C544.163754,44.871429 545.851562,47.8430789 545.851562,51.8496094 C545.851562,55.2584806 544.578789,58.163725 542.033203,60.5654297 C539.487617,62.9671344 535.215525,64.4557263 529.216797,65.03125 C533.843122,65.2968763 537.346017,66.1435475 539.725586,67.5712891 C542.105155,68.9990306 543.560544,71.1074079 544.091797,73.8964844 L545.519531,80.96875 C545.851564,82.6289146 546.244464,83.7799447 546.698242,84.421875 C547.15202,85.0638053 547.77734,85.3847656 548.574219,85.3847656 C549.393233,85.3847656 550.090492,85.0859405 550.666016,84.4882812 L551.5625,85.3847656 C550.212233,86.7350328 548.718107,87.6868462 547.080078,88.2402344 L547.080078,88.2402344 L547.080078,88.2402344 L547.080078,88.2402344 Z M528.370117,62.4414062 C529.598639,61.467443 530.439776,60.1614665 530.893555,58.5234375 C531.347333,56.8854085 531.574219,54.9153761 531.574219,52.6132812 C531.574219,48.8945127 531.065109,46.0833429 530.046875,44.1796875 C529.028641,42.2760321 527.357433,41.3242188 525.033203,41.3242188 C523.992833,41.3242188 523.212568,41.4846989 522.692383,41.8056641 C522.172198,42.1266292 521.818035,42.6966105 521.629883,43.515625 C521.441731,44.3346395 521.347656,45.5520753 521.347656,47.1679688 L521.347656,63.9023438 L523.207031,63.9023438 C525.420584,63.9023438 527.141595,63.4153695 528.370117,62.4414062 L528.370117,62.4414062 L528.370117,62.4414062 L528.370117,62.4414062 Z M564.058594,40.1953125 L566.482422,40.1621094 C573.12308,40.0292962 576.76432,39.9628906 577.40625,39.9628906 C586.813849,39.9628906 593.847307,41.9661258 598.506836,45.9726562 C603.166364,49.9791867 605.496094,55.8228783 605.496094,63.5039062 C605.496094,68.4401288 604.356131,72.7620257 602.076172,76.4697266 C599.796213,80.1774274 596.503602,83.0439352 592.198242,85.0693359 C587.892882,87.0947367 582.763051,88.1074219 576.808594,88.1074219 C576.144528,88.1074219 574.561861,88.0742191 572.060547,88.0078125 C569.559232,87.9414059 567.744146,87.9082031 566.615234,87.9082031 C561.302708,87.9082031 557.351575,87.9746087 554.761719,88.1074219 L554.761719,86.7460938 C556.222664,86.6796872 557.279619,86.5026056 557.932617,86.2148438 C558.585615,85.9270819 559.028319,85.3958372 559.260742,84.6210938 C559.493165,83.8463503 559.609375,82.6067794 559.609375,80.9023438 L559.609375,47.1679688 C559.609375,45.4635331 559.487631,44.2239622 559.244141,43.4492188 C559.00065,42.6744753 558.552412,42.1432306 557.899414,41.8554688 C557.246416,41.5677069 556.200528,41.3906253 554.761719,41.3242188 L554.761719,39.9628906 C558.059912,40.1178393 561.15884,40.1953125 564.058594,40.1953125 L564.058594,40.1953125 L564.058594,40.1953125 L564.058594,40.1953125 Z M573.787109,84.7041016 C574.052736,85.5120483 574.545244,86.0764958 575.264648,86.3974609 C575.984053,86.7184261 577.063144,86.8789062 578.501953,86.8789062 C582.995465,86.8789062 586.238271,84.9420767 588.230469,81.0683594 C590.222666,77.1946421 591.21875,71.4284237 591.21875,63.7695312 C591.21875,56.0885033 590.189463,50.4052919 588.130859,46.7197266 C586.072255,43.0341613 582.840517,41.1914062 578.435547,41.1914062 C577.018873,41.1914062 575.956384,41.3518864 575.248047,41.6728516 C574.53971,41.9938167 574.052736,42.563798 573.787109,43.3828125 C573.521483,44.201827 573.388672,45.4192628 573.388672,47.0351562 L573.388672,81.0351562 C573.388672,82.6731853 573.521483,83.8961548 573.787109,84.7041016 L573.787109,84.7041016 L573.787109,84.7041016 L573.787109,84.7041016 Z M630.21582,41.8554688 C629.562822,42.1432306 629.120118,42.6744753 628.887695,43.4492188 C628.655272,44.2239622 628.539062,45.4635331 628.539062,47.1679688 L628.539062,80.9023438 C628.539062,82.6067794 628.660806,83.8463503 628.904297,84.6210938 C629.147788,85.3958372 629.596025,85.9270819 630.249023,86.2148438 C630.902021,86.5026056 631.947909,86.6796872 633.386719,86.7460938 L633.386719,88.1074219 C630.730455,87.9746087 626.945337,87.9082031 622.03125,87.9082031 C616.541639,87.9082031 612.501966,87.9746087 609.912109,88.1074219 L609.912109,86.7460938 C611.373054,86.6796872 612.43001,86.5026056 613.083008,86.2148438 C613.736006,85.9270819 614.17871,85.3958372 614.411133,84.6210938 C614.643556,83.8463503 614.759766,82.6067794 614.759766,80.9023438 L614.759766,47.1679688 C614.759766,45.4635331 614.638022,44.2239622 614.394531,43.4492188 C614.15104,42.6744753 613.702803,42.1432306 613.049805,41.8554688 C612.396807,41.5677069 611.350919,41.3906253 609.912109,41.3242188 L609.912109,39.9628906 C612.501966,40.0957038 616.541639,40.1621094 622.03125,40.1621094 C626.945337,40.1621094 630.730455,40.0957038 633.386719,39.9628906 L633.386719,41.3242188 C631.925774,41.3906253 630.868818,41.5677069 630.21582,41.8554688 L630.21582,41.8554688 L630.21582,41.8554688 L630.21582,41.8554688 Z M680.302734,42.7851562 C679.638669,43.4492221 679.190431,44.4619073 678.958008,45.8232422 C678.725585,47.1845771 678.609375,49.2154813 678.609375,51.9160156 L678.609375,88.1074219 C677.945309,88.0410153 677.20378,88.0078125 676.384766,88.0078125 C675.587887,88.0078125 674.735682,88.0410153 673.828125,88.1074219 L643.712891,55.203125 L643.712891,74.7929688 C643.712891,78.1354334 643.845702,80.5371021 644.111328,81.9980469 C644.376954,83.4589917 644.974605,84.5380825 645.904297,85.2353516 C646.833989,85.9326207 648.39452,86.4361964 650.585938,86.7460938 L650.585938,88.1074219 C648.770824,87.9746087 646.225277,87.9082031 642.949219,87.9082031 C640.558582,87.9082031 638.67709,87.9746087 637.304688,88.1074219 L637.304688,86.7460938 C638.721361,86.4361964 639.767249,85.9492221 640.442383,85.2851562 C641.117516,84.6210904 641.571288,83.6084052 641.803711,82.2470703 C642.036134,80.8857354 642.152344,78.8548312 642.152344,76.1542969 L642.152344,47.1679688 C642.152344,45.4635331 642.0306,44.2239622 641.787109,43.4492188 C641.543619,42.6744753 641.095381,42.1432306 640.442383,41.8554688 C639.789385,41.5677069 638.743497,41.3906253 637.304688,41.3242188 L637.304688,39.9628906 C638.67709,40.0957038 640.558582,40.1621094 642.949219,40.1621094 C645.450533,40.1621094 647.542309,40.0957038 649.224609,39.9628906 L677.015625,69.3476562 L677.015625,53.2773438 C677.015625,49.9348791 676.882814,47.5332104 676.617188,46.0722656 C676.351561,44.6113208 675.759445,43.53223 674.84082,42.8349609 C673.922196,42.1376918 672.367198,41.6341161 670.175781,41.3242188 L670.175781,39.9628906 C672.01303,40.0957038 674.54751,40.1621094 677.779297,40.1621094 C680.192069,40.1621094 682.073561,40.0957038 683.423828,39.9628906 L683.423828,41.3242188 C682.007154,41.6341161 680.9668,42.1210904 680.302734,42.7851562 L680.302734,42.7851562 L680.302734,42.7851562 L680.302734,42.7851562 Z M728.688477,85.4511719 C728.32324,84.6321574 727.819665,84.2226562 727.177734,84.2226562 C726.225907,84.2226562 724.687511,84.7428333 722.5625,85.7832031 C718.046852,87.9746203 714.217464,89.0703125 711.074219,89.0703125 C705.451795,89.0703125 700.736998,88.1018977 696.929688,86.1650391 C693.122377,84.2281804 690.266937,81.4225444 688.363281,77.7480469 C686.459626,74.0735493 685.507812,69.6354427 685.507812,64.4335938 C685.507812,59.4309646 686.62564,55.0039255 688.861328,51.1523438 C691.097016,47.300762 694.212545,44.3125106 698.208008,42.1875 C702.20347,40.0624894 706.757787,39 711.871094,39 C714.792983,39 717.288727,39.3873659 719.358398,40.1621094 C721.42807,40.9368528 723.337231,42.0214774 725.085938,43.4160156 C725.528648,43.8365906 725.98242,44.046875 726.447266,44.046875 C726.912112,44.046875 727.277342,43.7203809 727.542969,43.0673828 C727.808595,42.4143848 728.007812,41.3795644 728.140625,39.9628906 L729.701172,39.9628906 C729.524088,43.1725421 729.435547,48.8391521 729.435547,56.9628906 L727.875,56.9628906 C727.653645,54.5943892 727.332684,52.591154 726.912109,50.953125 C726.491534,49.315096 725.860681,47.8541731 725.019531,46.5703125 C724.178381,45.2864519 723.038419,44.1464894 721.599609,43.1503906 C720.669917,42.5084603 719.574225,42.0104184 718.3125,41.65625 C717.050775,41.3020816 715.811204,41.125 714.59375,41.125 C711.339827,41.125 708.705739,42.2704964 706.691406,44.5615234 C704.677073,46.8525505 703.249353,49.7411935 702.408203,53.2275391 C701.567053,56.7138846 701.146484,60.360658 701.146484,64.1679688 C701.146484,72.070352 702.114899,77.9693816 704.051758,81.8652344 C705.988616,85.7610872 708.661441,87.7089844 712.070312,87.7089844 C713.486986,87.7089844 714.604814,87.4322944 715.423828,86.8789062 C716.375656,86.2148404 716.851562,85.0859455 716.851562,83.4921875 L716.851562,76.6855469 C716.851562,74.4055876 716.674481,72.7399141 716.320312,71.6884766 C715.966144,70.637039 715.324223,69.9121114 714.394531,69.5136719 C713.464839,69.1152324 711.992849,68.8717452 709.978516,68.7832031 L709.978516,67.421875 C712.833999,67.5768237 717.161429,67.6542969 722.960938,67.6542969 C727.786482,67.6542969 731.283843,67.5768237 733.453125,67.421875 L733.453125,68.7832031 C732.611975,68.8717452 732.008791,69.0543606 731.643555,69.3310547 C731.278318,69.6077488 731.023764,70.1334597 730.879883,70.9082031 C730.736002,71.6829466 730.664062,72.9225175 730.664062,74.6269531 L730.664062,88.1074219 L729.302734,88.1074219 C729.258463,87.1555942 729.053713,86.2701864 728.688477,85.4511719 L728.688477,85.4511719 L728.688477,85.4511719 L728.688477,85.4511719 Z" id="BOARDING" fill="#616161"></path>
            <path d="M373.847656,12.6835938 L373.847656,13.484375 L369.121094,13.484375 L369.121094,29.6171875 C369.121094,30.4114623 369.264321,30.9746077 369.550781,31.3066406 C369.837241,31.6386735 370.279945,31.8046875 370.878906,31.8046875 C372.011724,31.8046875 372.916663,31.0039143 373.59375,29.4023438 L374.277344,29.7734375 C373.274735,32.5208471 371.451836,33.8945312 368.808594,33.8945312 C367.050772,33.8945312 365.71615,33.4388066 364.804688,32.5273438 C364.244789,31.980466 363.863933,31.2871136 363.662109,30.4472656 C363.460285,29.6074177 363.359375,28.4453199 363.359375,26.9609375 L363.359375,13.484375 L360,13.484375 L360,12.6835938 L363.359375,12.6835938 L363.359375,7.37109375 C365.559907,7.37109375 367.480461,6.94141055 369.121094,6.08203125 L369.121094,12.6835938 L373.847656,12.6835938 L373.847656,12.6835938 L373.847656,12.6835938 Z M403.576172,13.1621094 C404.533208,12.4524704 405.617181,12.0976562 406.828125,12.0976562 C407.635421,12.0976562 408.312497,12.2734357 408.859375,12.625 C409.406253,12.9765643 409.809895,13.4290337 410.070312,13.9824219 C410.33073,14.5358101 410.460938,15.1315072 410.460938,15.7695312 C410.460938,16.7591195 410.174482,17.5664031 409.601562,18.1914062 C409.028643,18.8164094 408.273442,19.1289062 407.335938,19.1289062 C406.424475,19.1289062 405.705081,18.8977888 405.177734,18.4355469 C404.650388,17.973305 404.386719,17.3515664 404.386719,16.5703125 C404.386719,15.2942645 404.97265,14.2526082 406.144531,13.4453125 C405.97526,13.4062498 405.812501,13.3867188 405.65625,13.3867188 C405.473957,13.3867188 405.265626,13.4192705 405.03125,13.484375 C404.354163,13.5885422 403.73568,13.9108046 403.175781,14.4511719 C402.615883,14.9915392 402.176434,15.6393191 401.857422,16.3945312 C401.53841,17.1497434 401.378906,17.8854131 401.378906,18.6015625 L401.378906,29.2070312 C401.378906,30.4440166 401.678382,31.3001278 402.277344,31.7753906 C402.876305,32.2506534 403.833327,32.4882812 405.148438,32.4882812 L405.148438,33.328125 C401.815088,33.2239578 399.692713,33.171875 398.78125,33.171875 C397.934892,33.171875 396.027359,33.2239578 393.058594,33.328125 L393.058594,32.4882812 C393.696618,32.4882812 394.20117,32.4036467 394.572266,32.234375 C394.943361,32.0651033 395.210286,31.7721375 395.373047,31.3554688 C395.535808,30.9388 395.617188,30.3593787 395.617188,29.6171875 L395.617188,17 C395.617188,15.7630146 395.428387,14.8678413 395.050781,14.3144531 C394.673175,13.7610649 394.009119,13.484375 393.058594,13.484375 L393.058594,12.6445312 C393.904952,12.7226566 394.731767,12.7617188 395.539062,12.7617188 C397.895845,12.7617188 399.84244,12.5794289 401.378906,12.2148438 L401.378906,15.9257812 C401.886721,14.7929631 402.619136,13.8717483 403.576172,13.1621094 L403.576172,13.1621094 L403.576172,13.1621094 L403.576172,13.1621094 Z M440.013672,13.8359375 C439.486325,13.1979135 438.662766,12.8789062 437.542969,12.8789062 C437.022133,12.8789062 436.501305,12.9602856 435.980469,13.1230469 C435.459633,13.2858081 435.02995,13.5299463 434.691406,13.8554688 C435.433597,14.1028658 436.013019,14.4902317 436.429688,15.0175781 C436.846356,15.5449245 437.054688,16.2057252 437.054688,17 C437.054688,17.5468777 436.921225,18.0384093 436.654297,18.4746094 C436.387368,18.9108095 436.006513,19.2558581 435.511719,19.5097656 C435.016925,19.7636731 434.450524,19.890625 433.8125,19.890625 C432.953121,19.890625 432.266279,19.5976592 431.751953,19.0117188 C431.237628,18.4257783 430.980469,17.6901086 430.980469,16.8046875 C430.980469,15.4244723 431.722649,14.3046918 433.207031,13.4453125 C434.834644,12.5468705 436.865873,12.0976562 439.300781,12.0976562 C442.03517,12.0976562 443.981765,12.6966086 445.140625,13.8945312 C445.700524,14.4544299 446.078124,15.1510375 446.273438,15.984375 C446.468751,16.8177125 446.566406,17.9830654 446.566406,19.4804688 L446.566406,30.359375 C446.566406,31.0104199 446.628255,31.4693997 446.751953,31.7363281 C446.875652,32.0032565 447.093748,32.1367188 447.40625,32.1367188 C447.83594,32.1367188 448.330726,31.9088564 448.890625,31.453125 L449.300781,32.1367188 C448.688799,32.6445338 448.024743,33.0156238 447.308594,33.25 C446.592444,33.4843762 445.733078,33.6015625 444.730469,33.6015625 C443.376295,33.6015625 442.399743,33.3020863 441.800781,32.703125 C441.20182,32.1041637 440.902344,31.3229215 440.902344,30.359375 C440.251299,31.4401096 439.398443,32.2506483 438.34375,32.7910156 C437.289057,33.3313829 436.162766,33.6015625 434.964844,33.6015625 C433.441399,33.6015625 432.220708,33.2011759 431.302734,32.4003906 C430.384761,31.5996054 429.925781,30.4830801 429.925781,29.0507812 C429.925781,27.6575451 430.381506,26.5052129 431.292969,25.59375 C432.204432,24.6822871 433.617178,23.8750035 435.53125,23.171875 C435.739584,23.0937496 436.416661,22.8365907 437.5625,22.4003906 C438.708339,21.9641905 439.535154,21.5182314 440.042969,21.0625 C440.550784,20.6067686 440.804688,20.1054715 440.804688,19.5585938 L440.804688,16.453125 C440.804688,15.3463486 440.541018,14.4739615 440.013672,13.8359375 L440.013672,13.8359375 L440.013672,13.8359375 L440.013672,13.8359375 Z M439.974609,22.0878906 C439.590493,22.3938817 439.040368,22.768227 438.324219,23.2109375 C437.47786,23.7968779 436.813804,24.4576786 436.332031,25.1933594 C435.850258,25.9290401 435.609375,26.8437445 435.609375,27.9375 C435.609375,28.9791719 435.837237,29.7571589 436.292969,30.2714844 C436.7487,30.7858099 437.347653,31.0429688 438.089844,31.0429688 C439.144537,31.0429688 440.049475,30.4960992 440.804688,29.4023438 L440.804688,21.1992188 C440.635416,21.4856785 440.358726,21.7818995 439.974609,22.0878906 L439.974609,22.0878906 L439.974609,22.0878906 L439.974609,22.0878906 Z M483.335938,12.0976562 C484.429693,12.0976562 485.324866,12.2278633 486.021484,12.4882812 C486.718102,12.7486992 487.287758,13.13281 487.730469,13.640625 C488.173179,14.14844 488.492187,14.8059855 488.6875,15.6132812 C488.882813,16.420577 488.980469,17.5012953 488.980469,18.8554688 L488.980469,29.6171875 C488.980469,30.3593787 489.065103,30.9388 489.234375,31.3554688 C489.403647,31.7721375 489.670571,32.0651033 490.035156,32.234375 C490.399741,32.4036467 490.901038,32.4882812 491.539062,32.4882812 L491.539062,33.328125 C488.882799,33.2239578 487.125004,33.171875 486.265625,33.171875 C485.445308,33.171875 483.707045,33.2239578 481.050781,33.328125 L481.050781,32.4882812 C481.597659,32.4882812 482.027342,32.4036467 482.339844,32.234375 C482.652345,32.0651033 482.876952,31.7721375 483.013672,31.3554688 C483.150391,30.9388 483.21875,30.3593787 483.21875,29.6171875 L483.21875,17.1757812 C483.21875,16.0820258 483.039715,15.2552111 482.681641,14.6953125 C482.323566,14.1354139 481.675786,13.8554688 480.738281,13.8554688 C480.009111,13.8554688 479.3418,14.0572896 478.736328,14.4609375 C478.130856,14.8645854 477.652346,15.4212204 477.300781,16.1308594 C476.949217,16.8404983 476.773438,17.6249957 476.773438,18.484375 L476.773438,29.6171875 C476.773438,30.3593787 476.845051,30.9388 476.988281,31.3554688 C477.131511,31.7721375 477.359373,32.0651033 477.671875,32.234375 C477.984377,32.4036467 478.407549,32.4882812 478.941406,32.4882812 L478.941406,33.328125 C476.493477,33.2239578 474.839848,33.171875 473.980469,33.171875 C473.160152,33.171875 471.317723,33.2239578 468.453125,33.328125 L468.453125,32.4882812 C469.091149,32.4882812 469.595701,32.4036467 469.966797,32.234375 C470.337892,32.0651033 470.604817,31.7721375 470.767578,31.3554688 C470.930339,30.9388 471.011719,30.3593787 471.011719,29.6171875 L471.011719,17 C471.011719,15.7630146 470.822919,14.8678413 470.445312,14.3144531 C470.067706,13.7610649 469.403651,13.484375 468.453125,13.484375 L468.453125,12.6445312 C469.299483,12.7226566 470.126298,12.7617188 470.933594,12.7617188 C473.290376,12.7617188 475.236971,12.5794289 476.773438,12.2148438 L476.773438,15.8085938 C477.984381,13.334623 480.171859,12.0976562 483.335938,12.0976562 L483.335938,12.0976562 L483.335938,12.0976562 L483.335938,12.0976562 Z M514.568359,31.0234375 C515.434249,32.3255273 516.66145,32.9765625 518.25,32.9765625 C519.031254,32.9765625 519.698565,32.7389347 520.251953,32.2636719 C520.805341,31.7884091 521.082031,31.0755256 521.082031,30.125 C521.082031,29.3828088 520.916017,28.7187529 520.583984,28.1328125 C520.251951,27.5468721 519.832034,27.0260439 519.324219,26.5703125 C518.816404,26.1145811 518.054693,25.4895873 517.039062,24.6953125 C515.802077,23.6927033 514.874352,22.9049508 514.255859,22.3320312 C513.637367,21.7591117 513.106773,21.07878 512.664062,20.2910156 C512.221352,19.5032513 512,18.6080779 512,17.6054688 C512,16.4596297 512.312497,15.4700562 512.9375,14.6367188 C513.562503,13.8033813 514.402338,13.1718771 515.457031,12.7421875 C516.511724,12.3124979 517.657546,12.0976562 518.894531,12.0976562 C519.910161,12.0976562 520.841142,12.2213529 521.6875,12.46875 C522.533858,12.7161471 523.197914,13.0026025 523.679688,13.328125 C523.940105,13.5104176 524.174478,13.6015625 524.382812,13.6015625 C524.877607,13.6015625 525.190104,13.1132861 525.320312,12.1367188 L526.199219,12.1367188 C526.095052,13.4778713 526.042969,15.8215979 526.042969,19.1679688 L525.164062,19.1679688 C524.929686,17.4231684 524.405603,15.9550841 523.591797,14.7636719 C522.777991,13.5722597 521.596362,12.9765625 520.046875,12.9765625 C519.2526,12.9765625 518.601565,13.2044248 518.09375,13.6601562 C517.585935,14.1158877 517.332031,14.7408814 517.332031,15.5351562 C517.332031,16.4335982 517.631507,17.2083301 518.230469,17.859375 C518.82943,18.5104199 519.552079,19.1354137 520.398438,19.734375 C521.244796,20.3333363 521.863279,20.7825506 522.253906,21.0820312 C523.347662,21.9023479 524.216794,22.6184865 524.861328,23.2304688 C525.505863,23.842451 526.029946,24.5358034 526.433594,25.3105469 C526.837242,26.0852903 527.039062,26.9739533 527.039062,27.9765625 C527.039062,29.1484434 526.697269,30.1835893 526.013672,31.0820312 C525.330075,31.9804732 524.40886,32.6738257 523.25,33.1621094 C522.09114,33.6503931 520.821621,33.8945312 519.441406,33.8945312 C518.022128,33.8945312 516.785162,33.6145861 515.730469,33.0546875 C514.936194,32.6510396 514.3112,32.3710945 513.855469,32.2148438 C513.777343,32.188802 513.71224,32.1757812 513.660156,32.1757812 C513.230467,32.1757812 512.91797,32.6510369 512.722656,33.6015625 L511.84375,33.6015625 C511.947917,32.0781174 512,29.4153836 512,25.6132812 L512.878906,25.6132812 C513.139324,27.9179803 513.70247,29.7213477 514.568359,31.0234375 L514.568359,31.0234375 L514.568359,31.0234375 L514.568359,31.0234375 Z M574.980469,12.7617188 C576.321621,12.7617188 577.337236,12.7226566 578.027344,12.6445312 L578.027344,13.4453125 C577.467445,13.6015633 576.959638,13.9368464 576.503906,14.4511719 C576.048175,14.9654974 575.651043,15.7760361 575.3125,16.8828125 L569.980469,33.40625 C569.550779,33.3671873 569.114586,33.3476562 568.671875,33.3476562 C568.242185,33.3476562 567.812502,33.3671873 567.382812,33.40625 L561.933594,18.5625 L557.5,33.40625 C557.096352,33.3671873 556.666669,33.3476562 556.210938,33.3476562 C555.794269,33.3476562 555.358075,33.3671873 554.902344,33.40625 L548.574219,15.7304688 C548.053383,14.2330654 547.285161,13.484375 546.269531,13.484375 L546.269531,12.6445312 C547.98829,12.800782 549.876292,12.8789062 551.933594,12.8789062 C553.274746,12.8789062 555.01301,12.800782 557.148438,12.6445312 L557.148438,13.484375 C556.562497,13.484375 556.100262,13.5071612 555.761719,13.5527344 C555.423175,13.5983075 555.152996,13.7057283 554.951172,13.875 C554.749348,14.0442717 554.648438,14.3046857 554.648438,14.65625 C554.648438,14.916668 554.720051,15.2747373 554.863281,15.7304688 L558.496094,27.0390625 L562.832031,12.6054688 C563.170575,12.6184896 563.658851,12.625 564.296875,12.625 C564.94792,12.625 565.429686,12.6184896 565.742188,12.6054688 L570.917969,27.8789062 L573.457031,19.8515625 C573.821616,18.6796816 574.003906,17.6640668 574.003906,16.8046875 C574.003906,14.7604064 572.95574,13.640626 570.859375,13.4453125 L570.859375,12.6445312 C572.109381,12.7226566 573.483065,12.7617188 574.980469,12.7617188 L574.980469,12.7617188 L574.980469,12.7617188 L574.980469,12.7617188 Z M613.869141,14.7148438 C615.607431,16.4596441 616.476562,19.2265436 616.476562,23.015625 C616.476562,26.7916855 615.607431,29.5488194 613.869141,31.2871094 C612.130851,33.0253993 609.738296,33.8945312 606.691406,33.8945312 C603.644516,33.8945312 601.248707,33.0253993 599.503906,31.2871094 C597.759106,29.5488194 596.886719,26.7916855 596.886719,23.015625 C596.886719,19.2395645 597.759106,16.4759202 599.503906,14.7246094 C601.248707,12.9732985 603.644516,12.0976562 606.691406,12.0976562 C609.738296,12.0976562 612.130851,12.9700434 613.869141,14.7148438 L613.869141,14.7148438 L613.869141,14.7148438 L613.869141,14.7148438 Z M603.947266,15.3789062 C603.263668,17.0455812 602.921875,19.5911287 602.921875,23.015625 C602.921875,26.4271004 603.263668,28.9596271 603.947266,30.6132812 C604.630863,32.2669354 605.545567,33.09375 606.691406,33.09375 C607.850266,33.09375 608.764971,32.2701905 609.435547,30.6230469 C610.106123,28.9759032 610.441406,26.4401213 610.441406,23.015625 C610.441406,19.5781078 610.106123,17.0293052 609.435547,15.3691406 C608.764971,13.7089761 607.850266,12.8789062 606.691406,12.8789062 C605.545567,12.8789062 604.630863,13.7122313 603.947266,15.3789062 L603.947266,15.3789062 L603.947266,15.3789062 L603.947266,15.3789062 Z M647.474609,13.1621094 C648.431645,12.4524704 649.515619,12.0976562 650.726562,12.0976562 C651.533858,12.0976562 652.210935,12.2734357 652.757812,12.625 C653.30469,12.9765643 653.708332,13.4290337 653.96875,13.9824219 C654.229168,14.5358101 654.359375,15.1315072 654.359375,15.7695312 C654.359375,16.7591195 654.07292,17.5664031 653.5,18.1914062 C652.92708,18.8164094 652.17188,19.1289062 651.234375,19.1289062 C650.322912,19.1289062 649.603518,18.8977888 649.076172,18.4355469 C648.548825,17.973305 648.285156,17.3515664 648.285156,16.5703125 C648.285156,15.2942645 648.871088,14.2526082 650.042969,13.4453125 C649.873697,13.4062498 649.710938,13.3867188 649.554688,13.3867188 C649.372395,13.3867188 649.164064,13.4192705 648.929688,13.484375 C648.252601,13.5885422 647.634117,13.9108046 647.074219,14.4511719 C646.51432,14.9915392 646.074871,15.6393191 645.755859,16.3945312 C645.436847,17.1497434 645.277344,17.8854131 645.277344,18.6015625 L645.277344,29.2070312 C645.277344,30.4440166 645.57682,31.3001278 646.175781,31.7753906 C646.774743,32.2506534 647.731764,32.4882812 649.046875,32.4882812 L649.046875,33.328125 C645.713525,33.2239578 643.59115,33.171875 642.679688,33.171875 C641.833329,33.171875 639.925796,33.2239578 636.957031,33.328125 L636.957031,32.4882812 C637.595055,32.4882812 638.099608,32.4036467 638.470703,32.234375 C638.841799,32.0651033 639.108723,31.7721375 639.271484,31.3554688 C639.434246,30.9388 639.515625,30.3593787 639.515625,29.6171875 L639.515625,17 C639.515625,15.7630146 639.326825,14.8678413 638.949219,14.3144531 C638.571613,13.7610649 637.907557,13.484375 636.957031,13.484375 L636.957031,12.6445312 C637.80339,12.7226566 638.630204,12.7617188 639.4375,12.7617188 C641.794283,12.7617188 643.740878,12.5794289 645.277344,12.2148438 L645.277344,15.9257812 C645.785159,14.7929631 646.517573,13.8717483 647.474609,13.1621094 L647.474609,13.1621094 L647.474609,13.1621094 L647.474609,13.1621094 Z M681.001953,31.3554688 C681.164714,31.7721375 681.431639,32.0651033 681.802734,32.234375 C682.17383,32.4036467 682.678382,32.4882812 683.316406,32.4882812 L683.316406,33.328125 C680.555976,33.2239578 678.772139,33.171875 677.964844,33.171875 C677.04036,33.171875 675.19793,33.2239578 672.4375,33.328125 L672.4375,32.4882812 C673.075524,32.4882812 673.576821,32.4036467 673.941406,32.234375 C674.305991,32.0651033 674.572916,31.7721375 674.742188,31.3554688 C674.911459,30.9388 674.996094,30.3593787 674.996094,29.6171875 L674.996094,6.8046875 C674.996094,5.56770215 674.804038,4.67252881 674.419922,4.11914062 C674.035805,3.56575244 673.375005,3.2890625 672.4375,3.2890625 L672.4375,2.44921875 C673.283858,2.52734414 674.110673,2.56640625 674.917969,2.56640625 C677.26173,2.56640625 679.208326,2.37760605 680.757812,2 L680.757812,29.6171875 C680.757812,30.3593787 680.839192,30.9388 681.001953,31.3554688 L681.001953,31.3554688 L681.001953,31.3554688 L681.001953,31.3554688 Z M723.298828,31.6191406 C723.669924,32.1725288 724.337235,32.4492188 725.300781,32.4492188 L725.300781,33.2890625 C724.454423,33.2109371 723.627608,33.171875 722.820312,33.171875 C720.46353,33.171875 718.516935,33.3541648 716.980469,33.71875 L716.980469,30.28125 C716.082027,32.6901162 714.350273,33.8945312 711.785156,33.8945312 C710.157544,33.8945312 708.728522,33.500655 707.498047,32.7128906 C706.267572,31.9251263 705.31055,30.7076905 704.626953,29.0605469 C703.943356,27.4134032 703.608073,25.352877 703.621094,22.8789062 C703.608073,20.5351445 703.982418,18.5559977 704.744141,16.9414062 C705.505863,15.3268148 706.56054,14.1158895 707.908203,13.3085938 C709.255866,12.501298 710.802075,12.0976562 712.546875,12.0976562 C714.513031,12.0976562 715.99088,12.5989533 716.980469,13.6015625 L716.980469,6.8046875 C716.980469,5.56770215 716.788413,4.67252881 716.404297,4.11914062 C716.02018,3.56575244 715.35938,3.2890625 714.421875,3.2890625 L714.421875,2.44921875 C715.268233,2.52734414 716.095048,2.56640625 716.902344,2.56640625 C719.246105,2.56640625 721.192701,2.37760605 722.742188,2 L722.742188,28.9335938 C722.742188,30.1705791 722.927733,31.0657524 723.298828,31.6191406 L723.298828,31.6191406 L723.298828,31.6191406 L723.298828,31.6191406 Z M714.050781,13.25 C712.644524,13.25 711.557296,14.0637939 710.789062,15.6914062 C710.020829,17.3190186 709.643229,19.7473797 709.65625,22.9765625 C709.617187,29.1094057 710.873685,32.1757812 713.425781,32.1757812 C713.998701,32.1757812 714.53906,32.0325535 715.046875,31.7460938 C715.55469,31.459634 715.981118,31.0462267 716.326172,30.5058594 C716.671226,29.9654921 716.889322,29.3372432 716.980469,28.6210938 L716.980469,14.6171875 C716.303382,13.7057246 715.326829,13.25 714.050781,13.25 L714.050781,13.25 L714.050781,13.25 L714.050781,13.25 Z" id="transworld" fill="#C5B358"></path>
        </g>
    </g>
</svg>